<svg width="226" height="37" viewBox="0 0 226 37" fill="none" xmlns="http://www.w3.org/2000/svg">
<path d="M0.512 1.69471H10.64C11.92 1.69471 13.216 1.83871 14.528 2.12671C15.84 2.38271 17.008 2.84671 18.032 3.51871C19.088 4.15871 19.936 5.03871 20.576 6.15871C21.248 7.27871 21.584 8.68671 21.584 10.3827C21.584 12.1747 21.04 13.7427 19.952 15.0867C18.864 16.3987 17.408 17.2627 15.584 17.6787V17.7747C17.792 18.0307 19.616 18.8947 21.056 20.3667C22.528 21.8067 23.264 23.7747 23.264 26.2707C23.264 27.6787 22.96 28.9747 22.352 30.1587C21.776 31.3107 20.944 32.3027 19.856 33.1347C18.768 33.9347 17.44 34.5587 15.872 35.0067C14.304 35.4547 12.544 35.6787 10.592 35.6787H0.512V1.69471ZM3.968 16.5747H10.928C11.76 16.5747 12.592 16.4787 13.424 16.2867C14.288 16.0947 15.072 15.7747 15.776 15.3267C16.48 14.8467 17.04 14.2227 17.456 13.4547C17.904 12.6867 18.128 11.7427 18.128 10.6227C18.128 9.53471 17.904 8.62271 17.456 7.88671C17.04 7.11871 16.464 6.49471 15.728 6.01471C14.992 5.53471 14.128 5.19871 13.136 5.00671C12.144 4.78271 11.088 4.67071 9.968 4.67071H3.968V16.5747ZM3.968 32.7027H10.4C11.648 32.7027 12.832 32.5907 13.952 32.3667C15.104 32.1107 16.096 31.7267 16.928 31.2147C17.792 30.6707 18.48 29.9827 18.992 29.1507C19.504 28.2867 19.76 27.2627 19.76 26.0787C19.76 23.8387 18.992 22.1747 17.456 21.0867C15.952 19.9667 13.808 19.4067 11.024 19.4067H3.968V32.7027ZM64.6276 18.6867C64.6276 21.2787 64.1796 23.6627 63.2836 25.8387C62.3876 28.0147 61.1396 29.9027 59.5396 31.5027C57.9716 33.0707 56.0996 34.3027 53.9236 35.1987C51.7796 36.0947 49.4436 36.5427 46.9156 36.5427C44.3876 36.5427 42.0356 36.0947 39.8596 35.1987C37.7156 34.3027 35.8436 33.0707 34.2436 31.5027C32.6756 29.9027 31.4436 28.0147 30.5476 25.8387C29.6516 23.6627 29.2036 21.2787 29.2036 18.6867C29.2036 16.0947 29.6516 13.7107 30.5476 11.5347C31.4436 9.35871 32.6756 7.48671 34.2436 5.91871C35.8436 4.31871 37.7156 3.07071 39.8596 2.17471C42.0356 1.27871 44.3876 0.83071 46.9156 0.83071C49.4436 0.83071 51.7796 1.27871 53.9236 2.17471C56.0996 3.07071 57.9716 4.31871 59.5396 5.91871C61.1396 7.48671 62.3876 9.35871 63.2836 11.5347C64.1796 13.7107 64.6276 16.0947 64.6276 18.6867ZM60.9796 18.6867C60.9796 16.7027 60.6596 14.8147 60.0196 13.0227C59.3796 11.2307 58.4516 9.66271 57.2356 8.31871C56.0196 6.94271 54.5316 5.85471 52.7716 5.05471C51.0436 4.25471 49.0916 3.85471 46.9156 3.85471C44.7396 3.85471 42.7716 4.25471 41.0116 5.05471C39.2836 5.85471 37.8116 6.94271 36.5956 8.31871C35.3796 9.66271 34.4516 11.2307 33.8116 13.0227C33.1716 14.8147 32.8516 16.7027 32.8516 18.6867C32.8516 20.6707 33.1716 22.5587 33.8116 24.3507C34.4516 26.1427 35.3796 27.7107 36.5956 29.0547C37.8116 30.3987 39.2836 31.4707 41.0116 32.2707C42.7716 33.0707 44.7396 33.4707 46.9156 33.4707C49.0916 33.4707 51.0436 33.0707 52.7716 32.2707C54.5316 31.4707 56.0196 30.3987 57.2356 29.0547C58.4516 27.7107 59.3796 26.1427 60.0196 24.3507C60.6596 22.5587 60.9796 20.6707 60.9796 18.6867ZM70.7251 35.6787H66.9331L81.6211 1.69471H84.9811L99.5731 35.6787H95.7331L91.9891 26.7507H74.4211L70.7251 35.6787ZM75.7171 23.5827H90.6931L83.2051 5.53471L75.7171 23.5827ZM108.031 35.6787H104.575V1.69471H114.559C116.223 1.69471 117.759 1.85471 119.167 2.17471C120.607 2.49471 121.839 3.02271 122.863 3.75871C123.919 4.46271 124.735 5.39071 125.311 6.54271C125.887 7.69471 126.175 9.10271 126.175 10.7667C126.175 12.0147 125.951 13.1507 125.503 14.1747C125.055 15.1987 124.447 16.0947 123.679 16.8627C122.911 17.5987 121.999 18.1907 120.943 18.6387C119.887 19.0867 118.735 19.3747 117.487 19.5027L127.423 35.6787H123.199L113.791 19.7907H108.031V35.6787ZM108.031 16.8147H114.031C116.815 16.8147 118.959 16.3187 120.463 15.3267C121.967 14.3027 122.719 12.7827 122.719 10.7667C122.719 9.64671 122.511 8.70271 122.095 7.93471C121.679 7.16671 121.103 6.54271 120.367 6.06271C119.631 5.58271 118.735 5.23071 117.679 5.00671C116.623 4.78271 115.455 4.67071 114.174 4.67071H108.031V16.8147ZM133.309 1.69471H144.589C146.701 1.69471 148.813 2.04671 150.925 2.75071C153.069 3.45471 154.989 4.52671 156.685 5.96671C158.413 7.37471 159.805 9.15071 160.861 11.2947C161.917 13.4067 162.445 15.8707 162.445 18.6867C162.445 21.5347 161.917 24.0147 160.861 26.1267C159.805 28.2387 158.413 30.0147 156.685 31.4547C154.989 32.8627 153.069 33.9187 150.925 34.6227C148.813 35.3267 146.701 35.6787 144.589 35.6787H133.309V1.69471ZM136.765 32.6067H143.629C146.189 32.6067 148.413 32.2067 150.301 31.4067C152.221 30.6067 153.805 29.5667 155.053 28.2867C156.301 26.9747 157.229 25.4867 157.837 23.8227C158.477 22.1587 158.797 20.4467 158.797 18.6867C158.797 16.9267 158.477 15.2147 157.837 13.5507C157.229 11.8867 156.301 10.4147 155.053 9.13471C153.805 7.82271 152.221 6.76671 150.301 5.96671C148.413 5.16671 146.189 4.76671 143.629 4.76671H136.765V32.6067ZM168.389 35.6787V28.9587L181.637 16.9587C182.469 16.1587 183.141 15.3427 183.653 14.5107C184.165 13.6787 184.421 12.7507 184.421 11.7267C184.421 10.5107 184.037 9.53471 183.269 8.79871C182.501 8.03071 181.477 7.64671 180.197 7.64671C178.853 7.64671 177.749 8.12671 176.885 9.08671C176.053 10.0147 175.557 11.2467 175.397 12.7827L167.669 11.7267C167.861 9.99871 168.325 8.46271 169.061 7.11871C169.829 5.77471 170.789 4.63871 171.941 3.71071C173.093 2.75071 174.405 2.03071 175.877 1.55071C177.381 1.03871 178.965 0.782708 180.629 0.782708C182.197 0.782708 183.717 0.990708 185.189 1.40671C186.661 1.82271 187.973 2.46271 189.125 3.32671C190.277 4.19071 191.189 5.27871 191.861 6.59071C192.565 7.90271 192.917 9.43871 192.917 11.1987C192.917 12.4147 192.757 13.5187 192.437 14.5107C192.117 15.4707 191.669 16.3667 191.093 17.1987C190.549 18.0307 189.909 18.8147 189.173 19.5507C188.469 20.2547 187.733 20.9587 186.965 21.6627L179.093 28.6707H192.965V35.6787H168.389ZM220.876 29.0547V35.6787H213.34V29.0547H197.356V22.2867L211.18 1.69471H220.828V22.5267H225.532V29.0547H220.876ZM213.388 9.95071H213.244L205.18 22.5267H213.388V9.95071Z" fill="#202848"/>
</svg>
